# xmcd CD database file
#
# Track frame offsets:
#	150
#	27264
#	52010
#	67550
#	93334
#	120807
#	139656
#	158526
#	177675
#	198259
#	213663
#	233797
#	254900
#	275721
#	289398
#	305593
#	318855
#	334538
#
# Disc length: 4702 seconds
#
# Revision: 0
# Processed by: cddbd v1.5.2PL0 Copyright (c) Steve Scherf et al.
# Submitted via: Feurio! 1.68 - http://www.feurio.com
#
DISCID=08125c12
DTITLE=Various Artist - Steppin' Madness
DYEAR=1900
DGENRE=R&B
TTITLE0=Marzette Griffith - Stepping With Style
TTITLE1=Michael Jackson - Don't Just Walk Away
TTITLE2=Trey Songz - Can't Help But Wait
TTITLE3=DJ Calvin - Late Night Cruise
TTITLE4=Pirnce - The Movement (Mellow Mix)
TTITLE5=Raheem DeVaughn - My People
TTITLE6=Elaine Elias - Moving Me On
TTITLE7=K-Jon - On The Ocean
TTITLE8=Mary J. Blige - Hurt Again
TTITLE9=Jaheim - She Ain't You
TTITLE10=Raheem DeBaughn - Woman
TTITLE11=Ledisi - Best Friend
TTITLE12=Erykah Badu - Honey
TTITLE13=Lil' Louis - Thief
TTITLE14=Jaheim w/Keyshia Cole - I"ve Changed
TTITLE15=Kelly Rowland w/Snoop Dogg - Ghetto
TTITLE16=Kanye West w/T. Pain - Good Life
TTITLE17=Mary J. Blige - Just Fine
EXTD=
EXTT0=
EXTT1=
EXTT2=
EXTT3=
EXTT4=
EXTT5=
EXTT6=
EXTT7=
EXTT8=
EXTT9=
EXTT10=
EXTT11=
EXTT12=
EXTT13=
EXTT14=
EXTT15=
EXTT16=
EXTT17=
PLAYORDER=
